HIERARCHY
ROOT Hips
{
	OFFSET 0.000000 35.082581 0.000000
	CHANNELS 6 Xposition Yposition Zposition Xrotation Yrotation Zrotation 
	JOINT Spine
	{
		OFFSET 0.000000 6.876099 0.125700
		CHANNELS 3 Xrotation Yrotation Zrotation
		JOINT Spine1
		{
			OFFSET 0.000000 5.730043 0.104720
			CHANNELS 3 Xrotation Yrotation Zrotation
			JOINT Spine1_split
			{
				OFFSET 0.000000 5.730043 0.104720
				CHANNELS 3 Xrotation Yrotation Zrotation
				JOINT Spine2
				{
					OFFSET 0.000000 5.730043 0.104720
					CHANNELS 3 Xrotation Yrotation Zrotation
					JOINT Neck
					{
						OFFSET 0.000000 10.314075 0.188496
						CHANNELS 3 Xrotation Yrotation Zrotation
						JOINT Head
						{
							OFFSET 0.000000 7.643700 -2.377400
							CHANNELS 3 Xrotation Yrotation Zrotation
							JOINT HeadTop_End
							{
								OFFSET 0.000000 43.788605 -13.619600
								CHANNELS 3 Xrotation Yrotation Zrotation
								End Site
								{
									OFFSET 0.000000 0.000000 0.000000
								}
							}
						}
					}
					JOINT LeftShoulder
					{
						OFFSET 2.196100 4.412489 0.087492
						CHANNELS 3 Xrotation Yrotation Zrotation
						JOINT LeftShoulder_split
						{
							OFFSET 2.196100 4.412489 0.087492
							CHANNELS 3 Xrotation Yrotation Zrotation
							JOINT LeftArm
							{
								OFFSET 8.771219 -2.981674 -0.026999
								CHANNELS 3 Xrotation Yrotation Zrotation
								JOINT LeftForeArm
								{
									OFFSET 8.512804 0.000000 -0.000000
									CHANNELS 3 Xrotation Yrotation Zrotation
									JOINT LeftHand
									{
										OFFSET 18.484802 0.000000 -0.000000
										CHANNELS 3 Xrotation Yrotation Zrotation
										JOINT LeftHandThumb1
										{
											OFFSET 2.499420 -1.158070 2.653252
											CHANNELS 3 Xrotation Yrotation Zrotation
											JOINT LeftHandThumb2
											{
												OFFSET 2.370079 -1.368366 1.368366
												CHANNELS 3 Xrotation Yrotation Zrotation
												JOINT LeftHandThumb3
												{
													OFFSET 2.676727 -1.545410 1.545409
													CHANNELS 3 Xrotation Yrotation Zrotation
													JOINT LeftHandThumb4
													{
														OFFSET 1.692226 -0.977005 0.977007
														CHANNELS 3 Xrotation Yrotation Zrotation
														End Site
														{
															OFFSET 0.000000 0.000000 0.000000
														}
													}
												}
											}
										}
										JOINT LeftHandIndex1
										{
											OFFSET 7.924831 -0.457527 2.345128
											CHANNELS 3 Xrotation Yrotation Zrotation
											JOINT LeftHandIndex2
											{
												OFFSET 3.643303 0.000000 0.000000
												CHANNELS 3 Xrotation Yrotation Zrotation
												JOINT LeftHandIndex3
												{
													OFFSET 3.810799 0.000000 0.000000
													CHANNELS 3 Xrotation Yrotation Zrotation
													JOINT LeftHandIndex4
													{
														OFFSET 2.403702 0.000000 0.000000
														CHANNELS 3 Xrotation Yrotation Zrotation
														End Site
														{
															OFFSET 0.000000 0.000000 0.000000
														}
													}
												}
											}
										}
										JOINT LeftHandMiddle1
										{
											OFFSET 8.563995 0.000000 -0.000000
											CHANNELS 3 Xrotation Yrotation Zrotation
											JOINT LeftHandMiddle2
											{
												OFFSET 3.861618 0.000000 0.000000
												CHANNELS 3 Xrotation Yrotation Zrotation
												JOINT LeftHandMiddle3
												{
													OFFSET 3.701603 0.000000 0.000000
													CHANNELS 3 Xrotation Yrotation Zrotation
													JOINT LeftHandMiddle4
													{
														OFFSET 2.322544 0.000000 0.000000
														CHANNELS 3 Xrotation Yrotation Zrotation
														End Site
														{
															OFFSET 0.000000 0.000000 0.000000
														}
													}
												}
											}
										}
										JOINT LeftHandRing1
										{
											OFFSET 8.426460 -0.424637 -3.286992
											CHANNELS 3 Xrotation Yrotation Zrotation
											JOINT LeftHandRing2
											{
												OFFSET 3.126408 0.000000 0.000000
												CHANNELS 3 Xrotation Yrotation Zrotation
												JOINT LeftHandRing3
												{
													OFFSET 3.085026 0.000000 0.000000
													CHANNELS 3 Xrotation Yrotation Zrotation
													JOINT LeftHandRing4
													{
														OFFSET 1.644005 0.000000 0.000000
														CHANNELS 3 Xrotation Yrotation Zrotation
														End Site
														{
															OFFSET 0.000000 0.000000 0.000000
														}
													}
												}
											}
										}
									}
								}
							}
						}
					}
					JOINT RightShoulder
					{
						OFFSET -2.196100 4.412496 0.070690
						CHANNELS 3 Xrotation Yrotation Zrotation
						JOINT RightShoulder_split
						{
							OFFSET -2.196100 4.412496 0.070690
							CHANNELS 3 Xrotation Yrotation Zrotation
							JOINT RightArm
							{
								OFFSET -8.771282 -2.981682 -0.094208
								CHANNELS 3 Xrotation Yrotation Zrotation
								JOINT RightForeArm
								{
									OFFSET -8.494598 0.000000 0.000000
									CHANNELS 3 Xrotation Yrotation Zrotation
									JOINT RightHand
									{
										OFFSET -18.483803 0.000000 0.000001
										CHANNELS 3 Xrotation Yrotation Zrotation
										JOINT RightHandThumb1
										{
											OFFSET -2.527351 -1.008072 2.575253
											CHANNELS 3 Xrotation Yrotation Zrotation
											JOINT RightHandThumb2
											{
												OFFSET -2.321518 -1.340328 1.340329
												CHANNELS 3 Xrotation Yrotation Zrotation
												JOINT RightHandThumb3
												{
													OFFSET -2.657753 -1.534454 1.534455
													CHANNELS 3 Xrotation Yrotation Zrotation
													JOINT RightHandThumb4
													{
														OFFSET -1.807510 -1.043568 1.043567
														CHANNELS 3 Xrotation Yrotation Zrotation
														End Site
														{
															OFFSET 0.000000 0.000000 0.000000
														}
													}
												}
											}
										}
										JOINT RightHandIndex1
										{
											OFFSET -8.811420 0.015533 2.887987
											CHANNELS 3 Xrotation Yrotation Zrotation
											JOINT RightHandIndex2
											{
												OFFSET -3.537502 0.000000 0.000000
												CHANNELS 3 Xrotation Yrotation Zrotation
												JOINT RightHandIndex3
												{
													OFFSET -3.356201 0.000000 0.000000
													CHANNELS 3 Xrotation Yrotation Zrotation
													JOINT RightHandIndex4
													{
														OFFSET -1.933098 0.000000 0.000000
														CHANNELS 3 Xrotation Yrotation Zrotation
														End Site
														{
															OFFSET 0.000000 0.000000 0.000000
														}
													}
												}
											}
										}
										JOINT RightHandMiddle1
										{
											OFFSET -8.178135 0.000000 0.000000
											CHANNELS 3 Xrotation Yrotation Zrotation
											JOINT RightHandMiddle2
											{
												OFFSET -3.901302 0.000000 0.000000
												CHANNELS 3 Xrotation Yrotation Zrotation
												JOINT RightHandMiddle3
												{
													OFFSET -3.909599 0.000000 0.000000
													CHANNELS 3 Xrotation Yrotation Zrotation
													JOINT RightHandMiddle4
													{
														OFFSET -2.376003 0.000000 0.000000
														CHANNELS 3 Xrotation Yrotation Zrotation
														End Site
														{
															OFFSET 0.000000 0.000000 0.000000
														}
													}
												}
											}
										}
										JOINT RightHandRing1
										{
											OFFSET -7.559013 0.014137 -2.865403
											CHANNELS 3 Xrotation Yrotation Zrotation
											JOINT RightHandRing2
											{
												OFFSET -3.449306 0.000000 0.000000
												CHANNELS 3 Xrotation Yrotation Zrotation
												JOINT RightHandRing3
												{
													OFFSET -3.362106 0.000000 0.000000
													CHANNELS 3 Xrotation Yrotation Zrotation
													JOINT RightHandRing4
													{
														OFFSET -2.076401 0.000000 0.000000
														CHANNELS 3 Xrotation Yrotation Zrotation
														End Site
														{
															OFFSET 0.000000 0.000000 0.000000
														}
													}
												}
											}
										}
									}
								}
							}
						}
					}
				}
			}
		}
	}
	JOINT LeftUpLeg
	{
		OFFSET 10.205400 -3.823500 0.155100
		CHANNELS 3 Xrotation Yrotation Zrotation
		JOINT LeftLeg
		{
			OFFSET 0.708757 -12.982077 0.567790
			CHANNELS 3 Xrotation Yrotation Zrotation
			JOINT LeftFoot
			{
				OFFSET -0.708756 -10.717838 -2.184338
				CHANNELS 3 Xrotation Yrotation Zrotation
				JOINT LeftToeBase
				{
					OFFSET 0.108149 -7.191104 7.560241
					CHANNELS 3 Xrotation Yrotation Zrotation
					JOINT LeftToe_End
					{
						OFFSET 0.070230 0.081724 4.490308
						CHANNELS 3 Xrotation Yrotation Zrotation
						End Site
						{
							OFFSET 0.000000 0.000000 0.000000
						}
					}
				}
			}
		}
	}
	JOINT RightUpLeg
	{
		OFFSET -10.205400 -3.823500 0.005500
		CHANNELS 3 Xrotation Yrotation Zrotation
		JOINT RightLeg
		{
			OFFSET -0.708756 -12.982134 0.610632
			CHANNELS 3 Xrotation Yrotation Zrotation
			JOINT RightFoot
			{
				OFFSET 0.708754 -10.717769 -1.945823
				CHANNELS 3 Xrotation Yrotation Zrotation
				JOINT RightToeBase
				{
					OFFSET -0.108140 -7.191069 7.372968
					CHANNELS 3 Xrotation Yrotation Zrotation
					JOINT RightToe_End
					{
						OFFSET -0.070227 0.081735 4.479403
						CHANNELS 3 Xrotation Yrotation Zrotation
						End Site
						{
							OFFSET 0.000000 0.000000 0.000000
						}
					}
				}
			}
		}
	}
}
MOTION
Frames: 5
Frame Time: 0.016667
0.963748 27.168064 0.146506 0.899500 -43.198679 5.520189 9.373692 12.838576 -4.728747 1.751729 3.638382 -1.540308 0.000000 0.000000 0.000000 1.716103 3.636630 -1.514276 -4.807235 12.764789 2.112758 4.999610 12.340593 0.595642 -0.000001 0.000000 -0.000001 0.177119 3.280453 -2.501192 0.000000 0.000000 0.000000 0.608037 -3.857617 -44.118869 -0.000017 -132.706395 -0.000006 -9.689293 -8.659000 15.986220 -6.141211 -11.690789 -6.761694 9.914096 42.595495 3.409867 -0.422811 8.108081 27.509116 -0.000004 -0.000002 -0.000004 0.255305 3.378223 -45.814348 5.654081 5.847790 -88.067455 2.162165 4.544810 -50.866372 0.000003 -0.000002 -0.000001 -0.461485 3.841598 -39.722700 6.450755 5.820366 -95.892844 2.182887 4.561580 -51.127733 0.000001 0.000003 -0.000001 0.469721 4.966841 -39.799447 8.181042 5.368625 -113.502984 3.200491 5.218135 -63.022989 0.000000 0.000001 -0.000001 0.028608 13.490914 -3.638397 0.000000 0.000000 0.000000 -50.086699 20.453906 65.076772 0.000000 105.790970 -0.000033 -20.892258 14.931903 -20.970339 -7.341095 13.749663 7.412327 9.855768 -44.489107 -3.903268 -0.115783 -14.513088 -28.973857 0.000003 -0.000002 0.000001 -0.124381 -2.384774 45.108868 4.500608 -4.654555 88.071184 1.723236 -3.618376 50.920105 0.000000 -0.000001 -0.000001 -0.761621 -2.932897 39.031065 5.133902 -4.632762 95.881663 1.739753 -3.631697 51.181381 -0.000000 0.000000 0.000001 0.154762 -4.068808 39.122675 6.509728 -4.273575 113.462877 2.549571 -4.153930 63.067344 -0.000002 -0.000003 -0.000001 -41.801960 5.076718 27.397207 65.922759 -13.704395 -1.554625 -25.847282 -7.556878 -14.933044 -1.594225 0.000009 0.000004 0.000000 -0.000002 0.000000 -15.663094 -7.355305 -41.378662 64.493440 0.268771 -5.241645 -37.920370 -16.217914 32.112230 -1.421659 -0.000021 -0.000001 -0.000000 0.000001 -0.000000 
1.066299 27.266575 0.218747 1.506445 -47.196423 6.015680 9.401156 13.181183 -4.746337 1.781057 3.670390 -1.552474 0.000000 0.000000 0.000000 1.745708 3.669436 -1.526470 -4.852179 13.507686 1.989613 5.455247 14.636204 -0.622791 0.000001 0.000000 -0.000000 0.097891 3.823967 -2.193866 0.000000 0.000000 0.000000 0.257130 0.811139 -40.840245 -0.000005 -133.311905 -0.000003 -10.152849 -8.537428 13.607058 -6.141206 -11.690787 -6.761696 9.914096 42.595498 3.409868 -0.422816 8.108081 27.509116 -0.000004 -0.000000 -0.000004 0.255306 3.378222 -45.814348 5.654088 5.847788 -88.067455 2.162167 4.544818 -50.866376 -0.000001 0.000001 -0.000001 -0.461482 3.841598 -39.722697 6.450751 5.820366 -95.892844 2.182887 4.561580 -51.127729 -0.000001 0.000000 -0.000002 0.469723 4.966836 -39.799454 8.181040 5.368624 -113.502984 3.200491 5.218138 -63.022989 0.000001 -0.000001 0.000000 0.200223 11.353369 -3.117938 0.000000 0.000000 0.000000 -51.036953 23.059955 69.349028 -0.000055 106.457719 0.000024 -20.423592 15.369068 -21.891151 -7.341092 13.749663 7.412325 9.855770 -44.489107 -3.903269 -0.115784 -14.513086 -28.973857 -0.000000 -0.000001 0.000002 -0.124381 -2.384777 45.108871 4.500606 -4.654553 88.071184 1.723238 -3.618376 50.920102 -0.000000 0.000000 0.000000 -0.761621 -2.932898 39.031061 5.133902 -4.632760 95.881663 1.739754 -3.631696 51.181377 -0.000000 0.000000 -0.000000 0.154763 -4.068808 39.122671 6.509725 -4.273575 113.462870 2.549572 -4.153929 63.067344 0.000001 0.000001 0.000001 -38.480012 6.474564 28.433343 65.319667 -14.302399 -2.467330 -28.205485 -4.517377 -14.529564 -1.594224 0.000009 0.000003 0.000000 0.000002 -0.000000 -20.112887 -4.211162 -40.809588 65.844636 1.814541 -7.194668 -36.502191 -15.341361 31.344377 -1.421663 -0.000021 -0.000001 0.000000 -0.000001 0.000000 
1.169856 27.339909 0.277216 2.361571 -51.228362 6.539901 9.296598 13.213926 -4.727877 1.771371 3.585723 -1.596583 0.000000 0.000000 0.000000 1.740267 3.584190 -1.570210 -4.939228 14.320790 1.963289 5.901590 17.485827 -1.956386 0.000000 0.000000 0.000001 -0.027858 4.558145 -1.523008 0.000000 0.000000 0.000000 -2.682222 4.894929 -37.047124 0.000001 -131.773569 0.000008 -12.029693 -7.006942 9.958186 -6.141211 -11.690789 -6.761694 9.914101 42.595501 3.409871 -0.422808 8.108080 27.509121 -0.000001 0.000003 -0.000003 0.255304 3.378222 -45.814348 5.654083 5.847786 -88.067455 2.162169 4.544816 -50.866372 -0.000001 0.000001 -0.000001 -0.461481 3.841595 -39.722703 6.450753 5.820367 -95.892844 2.182887 4.561581 -51.127733 0.000000 -0.000001 0.000002 0.469718 4.966841 -39.799451 8.181035 5.368626 -113.502984 3.200495 5.218132 -63.022989 0.000002 0.000001 -0.000001 0.408018 9.523264 -2.592290 0.000000 0.000000 0.000000 -52.008667 26.162978 72.996165 0.000024 106.923784 -0.000069 -20.167213 15.760643 -22.777317 -7.341092 13.749661 7.412326 9.855764 -44.489107 -3.903267 -0.115792 -14.513075 -28.973850 -0.000001 -0.000001 0.000003 -0.124381 -2.384779 45.108868 4.500604 -4.654557 88.071184 1.723242 -3.618376 50.920102 -0.000001 -0.000001 -0.000000 -0.761621 -2.932899 39.031061 5.133900 -4.632762 95.881656 1.739752 -3.631694 51.181374 0.000000 -0.000000 0.000000 0.154762 -4.068811 39.122671 6.509724 -4.273571 113.462877 2.549571 -4.153929 63.067337 -0.000002 0.000002 0.000002 -35.233825 7.658722 29.286649 64.763724 -14.865618 -3.333792 -30.635987 -1.229865 -14.140583 -1.594227 0.000015 0.000004 0.000000 -0.000001 0.000000 -24.828006 -1.486650 -39.365590 66.931305 3.233817 -9.472512 -34.711079 -14.399828 30.669510 -1.421663 -0.000020 -0.000002 0.000000 0.000001 0.000001 
1.267810 27.370796 0.296392 3.218366 -54.908768 6.928438 9.175135 12.879773 -4.645884 1.764132 3.368146 -1.656707 0.000000 0.000000 0.000000 1.742108 3.364818 -1.629985 -5.053196 15.121574 2.024822 6.249761 20.624680 -3.332858 -0.000000 0.000000 0.000000 -0.179991 5.325305 -0.579801 0.000000 0.000000 0.000000 -7.789435 6.885933 -33.013149 0.000011 -127.270262 0.000008 -14.645186 -4.440904 5.722893 -6.141213 -11.690788 -6.761688 9.914098 42.595491 3.409868 -0.422809 8.108078 27.509120 -0.000000 -0.000001 -0.000002 0.255301 3.378226 -45.814348 5.654081 5.847789 -88.067462 2.162167 4.544814 -50.866372 0.000004 -0.000002 0.000000 -0.461487 3.841600 -39.722697 6.450759 5.820364 -95.892844 2.182888 4.561572 -51.127733 -0.000001 -0.000000 -0.000001 0.469722 4.966841 -39.799454 8.181045 5.368624 -113.502991 3.200492 5.218139 -63.022989 -0.000001 0.000001 -0.000000 0.645884 8.044684 -2.081313 0.000000 0.000000 0.000000 -52.775670 29.458548 75.713876 -0.000042 107.580698 0.000016 -20.173242 16.137939 -23.571447 -7.341094 13.749663 7.412324 9.855761 -44.489107 -3.903268 -0.115789 -14.513081 -28.973850 -0.000002 -0.000000 -0.000000 -0.124380 -2.384777 45.108868 4.500602 -4.654556 88.071191 1.723242 -3.618376 50.920102 -0.000001 0.000001 0.000000 -0.761621 -2.932898 39.031061 5.133904 -4.632758 95.881663 1.739756 -3.631694 51.181377 -0.000001 -0.000001 -0.000000 0.154763 -4.068812 39.122675 6.509727 -4.273572 113.462870 2.549567 -4.153925 63.067344 0.000000 -0.000001 0.000001 -32.307010 8.439510 29.884311 64.440273 -15.411804 -3.968748 -32.960300 2.117377 -13.804363 -1.594223 0.000009 0.000004 0.000000 0.000005 0.000000 -28.930403 1.058314 -38.263136 67.678924 4.971750 -9.677191 -32.959969 -12.767191 29.186279 -1.421659 -0.000021 -0.000002 0.000000 -0.000001 0.000000 
1.361983 27.372707 0.284021 3.679595 -57.863703 6.858328 9.166036 12.142987 -4.466704 1.811340 3.011553 -1.713778 0.000000 0.000000 0.000000 1.802745 3.005540 -1.686653 -5.238821 15.870226 2.159965 6.483549 23.806788 -4.695050 0.000001 0.000000 0.000000 -0.321633 5.900919 0.463493 0.000000 0.000000 0.000000 -13.722279 6.130295 -29.065600 -0.000019 -119.097107 -0.000016 -17.072859 -2.533306 1.932104 -6.141212 -11.690788 -6.761690 9.914102 42.595501 3.409872 -0.422814 8.108077 27.509120 -0.000002 0.000003 -0.000003 0.255304 3.378222 -45.814344 5.654083 5.847786 -88.067455 2.162166 4.544809 -50.866372 -0.000003 0.000005 -0.000001 -0.461488 3.841601 -39.722700 6.450758 5.820366 -95.892844 2.182889 4.561582 -51.127733 0.000003 0.000000 0.000000 0.469723 4.966837 -39.799451 8.181032 5.368626 -113.502991 3.200491 5.218138 -63.022989 -0.000000 0.000002 0.000000 0.896321 6.912415 -1.617456 0.000000 0.000000 0.000000 -53.134528 32.659250 77.365942 -0.000064 108.641289 0.000023 -20.117410 16.480090 -24.129646 -7.341095 13.749662 7.412324 9.855769 -44.489107 -3.903266 -0.115791 -14.513080 -28.973850 0.000002 0.000001 0.000002 -0.124381 -2.384776 45.108868 4.500604 -4.654558 88.071191 1.723240 -3.618375 50.920105 -0.000001 0.000001 0.000000 -0.761621 -2.932895 39.031058 5.133903 -4.632760 95.881656 1.739749 -3.631694 51.181381 0.000000 -0.000000 0.000001 0.154762 -4.068812 39.122664 6.509727 -4.273569 113.462877 2.549570 -4.153928 63.067337 0.000000 -0.000003 -0.000000 -29.840031 8.665542 30.211996 64.450771 -15.902598 -4.284867 -34.995885 5.225461 -13.523935 -1.594225 0.000009 0.000005 -0.000000 -0.000003 0.000000 -32.131413 2.677527 -36.871267 68.037973 6.289690 -9.828057 -31.307132 -11.367463 27.938986 -1.421662 -0.000023 -0.000002 -0.000000 0.000001 -0.000000 
